<svg xmlns="http://www.w3.org/2000/svg" width="36" height="36" fill="none" xmlns:v="https://vecta.io/nano"><mask id="A" mask-type="alpha" maskUnits="userSpaceOnUse" x="3" y="3" width="30" height="30"><path d="M32.25 21.991c0-.54-.285-1.035-.735-1.335L20.25 13.621v-8.25c0-1.245-1.005-2.25-2.25-2.25s-2.25 1.005-2.25 2.25v8.25L4.485 20.656c-.45.285-.735.795-.735 1.335 0 1.05 1.02 1.815 2.04 1.5l9.96-3.12v8.25l-2.7 2.025a.72.72 0 0 0-.3.6v.885c0 .495.48.855.96.72l4.29-1.23 4.29 1.23c.48.135.96-.225.96-.72v-.885a.72.72 0 0 0-.3-.6l-2.7-2.025v-8.25l9.96 3.12c1.02.315 2.04-.45 2.04-1.5z" fill="#000"/></mask><g mask="url(#A)"><path fill="#006ed0" d="M0 0h36v36H0z"/></g></svg>