<svg xmlns="http://www.w3.org/2000/svg" width="36" height="36" fill="none" xmlns:v="https://vecta.io/nano"><mask id="A" mask-type="alpha" maskUnits="userSpaceOnUse" x="6" y="3" width="24" height="30"><path fill-rule="evenodd" d="M18 3.75c-6 0-12 .75-12 6V24a5.26 5.26 0 0 0 5.25 5.25l-1.725 1.725c-.465.465-.135 1.275.54 1.275H11.7c.195 0 .39-.075.525-.225L15 29.25h6l2.775 2.775c.135.135.33.225.525.225h1.635c.675 0 1.005-.81.525-1.275l-1.71-1.725A5.26 5.26 0 0 0 30 24V9.75c0-5.25-6-6-12-6zm-6.75 22.5C10.005 26.25 9 25.245 9 24s1.005-2.25 2.25-2.25S13.5 22.755 13.5 24s-1.005 2.25-2.25 2.25zM9 15.75h7.5v-6H9v6zm15.75 10.5c-1.245 0-2.25-1.005-2.25-2.25s1.005-2.25 2.25-2.25S27 22.755 27 24s-1.005 2.25-2.25 2.25zm-5.25-10.5H27v-6h-7.5v6z" fill="#000"/></mask><g mask="url(#A)"><path fill="#006ed0" d="M0 0h36v36H0z"/></g></svg>