<svg xmlns="http://www.w3.org/2000/svg" width="36" height="36" fill="none" xmlns:v="https://vecta.io/nano"><mask id="A" mask-type="alpha" maskUnits="userSpaceOnUse" x="2" y="3" width="32" height="30"><path fill-rule="evenodd" d="M2.995 4.5c0 .825.675 1.5 1.5 1.5h1.5l5.4 11.385-2.025 3.66c-1.095 2.01.345 4.455 2.625 4.455h16.5c.825 0 1.5-.675 1.5-1.5s-.675-1.5-1.5-1.5h-16.5l1.65-3H24.82c1.125 0 2.115-.615 2.625-1.545l5.37-9.735C33.37 7.23 32.65 6 31.51 6H9.31L8.305 3.855A1.49 1.49 0 0 0 6.955 3h-2.46c-.825 0-1.5.675-1.5 1.5zm9 22.5c-1.65 0-2.985 1.35-2.985 3s1.335 3 2.985 3a3.01 3.01 0 0 0 3-3 3.01 3.01 0 0 0-3-3zm12.015 3c0-1.65 1.335-3 2.985-3a3.01 3.01 0 0 1 3 3 3.01 3.01 0 0 1-3 3c-1.65 0-2.985-1.35-2.985-3z" fill="#000"/></mask><g mask="url(#A)"><path fill="#006ed0" d="M0 0h36v36H0z"/></g></svg>