<svg xmlns="http://www.w3.org/2000/svg" width="36" height="36" fill="none" xmlns:v="https://vecta.io/nano"><mask id="A" mask-type="alpha" maskUnits="userSpaceOnUse" x="4" y="4" width="28" height="28"><path fill-rule="evenodd" d="M22.5 9.182v7.755h6a3.01 3.01 0 0 1 3 3v9a3.01 3.01 0 0 1-3 3h-21a3.01 3.01 0 0 1-3-3v-15a3.01 3.01 0 0 1 3-3h6V9.182a3.01 3.01 0 0 1 .885-2.13l2.55-2.55c.28-.281.661-.439 1.058-.439s.777.158 1.058.439l2.565 2.565a2.95 2.95 0 0 1 .885 2.115zm-15 19.755h3v-3h-3v3zm3-6h-3v-3h3v3zm-3-6h3v-3h-3v3zm12 12h-3v-3h3v3zm-3-6h3v-3h-3v3zm3-6h-3v-3h3v3zm-3-6h3v-3h-3v3zm12 18h-3v-3h3v3zm-3-6h3v-3h-3v3z" fill="#000"/></mask><g mask="url(#A)"><path fill="#006ed0" d="M0 0h36v36H0z"/></g></svg>